<?xml version="1.0" standalone="no"?>
<!DOCTYPE svg PUBLIC "-//W3C//DTD SVG 20010904//EN"
 "http://www.w3.org/TR/2001/REC-SVG-20010904/DTD/svg10.dtd">
<svg version="1.0" xmlns="http://www.w3.org/2000/svg"
 width="797.000000pt" height="707.000000pt" viewBox="0 0 797.000000 707.000000"
 preserveAspectRatio="xMidYMid meet">

<g transform="translate(0.000000,707.000000) scale(0.100000,-0.100000)"
fill="#ffffff" stroke="none">
<path d="M3695 6970 c-978 -87 -1858 -575 -2446 -1356 -316 -421 -528 -899
-628 -1424 -74 -391 -75 -866 0 -1260 200 -1057 882 -1956 1844 -2430 110 -54
255 -119 322 -144 1035 -382 2189 -247 3098 364 185 125 329 244 505 420 290
289 478 547 652 895 178 354 281 703 340 1145 17 128 17 644 0 770 -91 672
-312 1208 -708 1720 -108 139 -361 401 -497 513 -516 428 -1109 686 -1778 772
-146 19 -557 28 -704 15z m510 -1426 c147 -30 254 -103 304 -207 35 -70 55
-186 45 -257 -3 -25 -84 -505 -180 -1067 -96 -562 -174 -1024 -174 -1027 0 -4
-97 -6 -215 -6 -214 0 -215 0 -220 23 -3 12 -84 483 -181 1047 -160 929 -176
1033 -171 1110 3 52 13 107 26 142 41 107 145 193 282 232 125 36 334 40 484
10z m-4 -3012 c195 -70 282 -215 282 -472 0 -187 -40 -299 -140 -390 -85 -78
-192 -110 -367 -110 -331 1 -496 167 -496 500 0 267 111 430 328 485 85 22
318 14 393 -13z"/>
</g>
</svg>
