<?xml version="1.0" standalone="no"?>
<!DOCTYPE svg PUBLIC "-//W3C//DTD SVG 20010904//EN"
 "http://www.w3.org/TR/2001/REC-SVG-20010904/DTD/svg10.dtd">
<svg version="1.0" xmlns="http://www.w3.org/2000/svg"
 width="746.000000pt" height="747.000000pt" viewBox="0 0 746.000000 747.000000"
 preserveAspectRatio="xMidYMid meet">
<metadata>
Created by potrace 1.16, written by Peter Selinger 2001-2019
</metadata>
<g transform="translate(0.000000,747.000000) scale(0.100000,-0.100000)"
fill="#ffffff" stroke="none">
<path d="M3535 7300 c-875 -60 -1684 -428 -2304 -1050 -599 -600 -959 -1378
-1032 -2227 -15 -181 -7 -585 15 -748 65 -470 204 -892 429 -1295 297 -532
757 -1008 1273 -1318 433 -260 877 -415 1399 -488 155 -21 569 -30 747 -15
1052 89 2001 630 2623 1495 357 497 580 1095 646 1731 18 173 15 559 -5 730
-34 281 -77 474 -163 739 -267 820 -852 1537 -1608 1974 -433 249 -890 399
-1395 456 -174 20 -459 27 -625 16z m2107 -1730 c284 -88 423 -441 280 -705
-15 -27 -429 -642 -919 -1366 -490 -724 -908 -1349 -928 -1388 -122 -231 -413
-318 -661 -196 -30 15 -67 37 -82 50 -15 12 -376 253 -802 535 -834 551 -869
577 -925 695 -113 239 -37 501 187 642 134 85 323 92 464 19 27 -13 317 -203
644 -420 327 -217 595 -394 596 -393 1 1 357 529 792 1172 512 758 811 1192
850 1232 128 135 318 181 504 123z"/>
</g>
</svg>
